HIERARCHY
ROOT hip
{
  OFFSET 0 0 0
  CHANNELS 6 Xposition Yposition Zposition Zrotation Yrotation Xrotation
  JOINT abdomen
  {
    OFFSET 0 20.6881 -0.73152
    CHANNELS 3 Zrotation Xrotation Yrotation
    JOINT chest
    {
      OFFSET 0 11.7043 -0.48768
      CHANNELS 3 Zrotation Xrotation Yrotation
      JOINT neck
      {
        OFFSET 0 22.1894 -2.19456
        CHANNELS 3 Zrotation Xrotation Yrotation
        JOINT head
        {
          OFFSET -0.24384 7.07133 1.2192
          CHANNELS 3 Zrotation Xrotation Yrotation
          JOINT leftEye
          {
            OFFSET 4.14528 8.04674 8.04672
            CHANNELS 3 Zrotation Xrotation Yrotation
            End Site
            {
              OFFSET 1 0 0
            }
          }
          JOINT rightEye
          {
            OFFSET -3.6576 8.04674 8.04672
            CHANNELS 3 Zrotation Xrotation Yrotation
            End Site
            {
              OFFSET 1 0 0
            }
          }
        }
      }
      JOINT rCollar
      {
        OFFSET -2.68224 19.2634 -4.8768
        CHANNELS 3 Zrotation Xrotation Yrotation
        JOINT rShldr
        {
          OFFSET -8.77824 -1.95073 1.46304
          CHANNELS 3 Zrotation Xrotation Yrotation
          JOINT rForeArm
          {
            OFFSET -28.1742 -1.7115 0.48768
            CHANNELS 3 Zrotation Xrotation Yrotation
            JOINT rHand
            {
              OFFSET -22.5879 0.773209 7.07136
              CHANNELS 3 Zrotation Xrotation Yrotation
              JOINT rThumb1
              {
                OFFSET -1.2192 -0.487915 3.41376
                CHANNELS 3 Zrotation Xrotation Yrotation
                JOINT rThumb2
                {
                  OFFSET -3.37035 -0.52449 3.41376
                  CHANNELS 3 Zrotation Xrotation Yrotation
                  End Site
                  {
                    OFFSET -1.78271 -1.18214 1.43049
                  }
                }
              }
              JOINT rIndex1
              {
                OFFSET -7.75947 0.938293 5.60832
                CHANNELS 3 Zrotation Xrotation Yrotation
                JOINT rIndex2
                {
                  OFFSET -2.54057 -0.884171 1.56538
                  CHANNELS 3 Zrotation Xrotation Yrotation
                  End Site
                  {
                    OFFSET -1.62519 -0.234802 1.16502
                  }
                }
              }
              JOINT rMid1
              {
                OFFSET -8.24714 1.18213 3.41376
                CHANNELS 3 Zrotation Xrotation Yrotation
                JOINT rMid2
                {
                  OFFSET -3.10165 -0.590103 1.0647
                  CHANNELS 3 Zrotation Xrotation Yrotation
                  End Site
                  {
                    OFFSET -2.48547 -0.328903 0.83742
                  }
                }
              }
              JOINT rRing1
              {
                OFFSET -8.82822 0.546677 1.51678
                CHANNELS 3 Zrotation Xrotation Yrotation
                JOINT rRing2
                {
                  OFFSET -2.60934 -0.819778 -0.0198488
                  CHANNELS 3 Zrotation Xrotation Yrotation
                  End Site
                  {
                    OFFSET -2.33842 -0.294052 0.168128
                  }
                }
              }
              JOINT rPinky1
              {
                OFFSET -8.27202 -0.0477905 -0.4584
                CHANNELS 3 Zrotation Xrotation Yrotation
                JOINT rPinky2
                {
                  OFFSET -1.82734 -0.647385 -0.700984
                  CHANNELS 3 Zrotation Xrotation Yrotation
                  End Site
                  {
                    OFFSET -1.69225 -0.51767 -0.607171
                  }
                }
              }
            }
          }
        }
      }
      JOINT lCollar
      {
        OFFSET 2.68224 19.2634 -4.8768
        CHANNELS 3 Zrotation Xrotation Yrotation
        JOINT lShldr
        {
          OFFSET 8.77824 -1.95073 1.46304
          CHANNELS 3 Zrotation Xrotation Yrotation
          JOINT lForeArm
          {
            OFFSET 28.1742 -1.7115 0.48768
            CHANNELS 3 Zrotation Xrotation Yrotation
            JOINT lHand
            {
              OFFSET 22.5879 0.773209 7.07136
              CHANNELS 3 Zrotation Xrotation Yrotation
              JOINT lThumb1
              {
                OFFSET 1.2192 -0.487915 3.41376
                CHANNELS 3 Zrotation Xrotation Yrotation
                JOINT lThumb2
                {
                  OFFSET 3.37035 -0.52449 3.41376
                  CHANNELS 3 Zrotation Xrotation Yrotation
                  End Site
                  {
                    OFFSET 1.78271 -1.18214 1.43049
                  }
                }
              }
              JOINT lIndex1
              {
                OFFSET 7.75947 0.938293 5.60832
                CHANNELS 3 Zrotation Xrotation Yrotation
                JOINT lIndex2
                {
                  OFFSET 2.54057 -0.884171 1.56538
                  CHANNELS 3 Zrotation Xrotation Yrotation
                  End Site
                  {
                    OFFSET 1.62519 -0.234802 1.16502
                  }
                }
              }
              JOINT lMid1
              {
                OFFSET 8.24714 1.18213 3.41376
                CHANNELS 3 Zrotation Xrotation Yrotation
                JOINT lMid2
                {
                  OFFSET 3.10165 -0.590103 1.0647
                  CHANNELS 3 Zrotation Xrotation Yrotation
                  End Site
                  {
                    OFFSET 2.48547 -0.328903 0.83742
                  }
                }
              }
              JOINT lRing1
              {
                OFFSET 8.82822 0.546677 1.51678
                CHANNELS 3 Zrotation Xrotation Yrotation
                JOINT lRing2
                {
                  OFFSET 2.60934 -0.819778 -0.0198488
                  CHANNELS 3 Zrotation Xrotation Yrotation
                  End Site
                  {
                    OFFSET 2.33842 -0.294052 0.168128
                  }
                }
              }
              JOINT lPinky1
              {
                OFFSET 8.27202 -0.0477905 -0.4584
                CHANNELS 3 Zrotation Xrotation Yrotation
                JOINT lPinky2
                {
                  OFFSET 1.82734 -0.647385 -0.700984
                  CHANNELS 3 Zrotation Xrotation Yrotation
                  End Site
                  {
                    OFFSET 1.69225 -0.51767 -0.607171
                  }
                }
              }
            }
          }
        }
      }
    }
  }
  JOINT rButtock
  {
    OFFSET -8.77824 4.35084 1.2192
    CHANNELS 3 Zrotation Xrotation Yrotation
    JOINT rThigh
    {
      OFFSET 0 -1.70687 -2.19456
      CHANNELS 3 Zrotation Xrotation Yrotation
      JOINT rShin
      {
        OFFSET 0 -36.8199 0.73152
        CHANNELS 3 Zrotation Xrotation Yrotation
        JOINT rFoot
        {
          OFFSET 0.73152 -45.1104 -5.12064
          CHANNELS 3 Zrotation Xrotation Yrotation
          End Site
          {
            OFFSET -1.1221 -3.69964 12.103
          }
        }
      }
    }
  }
  JOINT lButtock
  {
    OFFSET 8.77824 4.35084 1.2192
    CHANNELS 3 Zrotation Xrotation Yrotation
    JOINT lThigh
    {
      OFFSET 0 -1.70687 -2.19456
      CHANNELS 3 Zrotation Xrotation Yrotation
      JOINT lShin
      {
        OFFSET 0 -36.8199 0.73152
        CHANNELS 3 Zrotation Xrotation Yrotation
        JOINT lFoot
        {
          OFFSET -0.73152 -45.1104 -5.12064
          CHANNELS 3 Zrotation Xrotation Yrotation
          End Site
          {
            OFFSET 1.1221 -3.69964 12.103
          }
        }
      }
    }
  }
}
MOTION
Frames:	7
Frame Time:	0.00833333
27.3642 84.9248 205.262 0.0 0.0 0.0 -0.112402 -0.00252037 -0.00326498 -0.0310779 -0.00419858 -0.00538469 -2.2386e-15 7.95139e-16 9.31804e-18 -6.75247e-15 9.54166e-15 2.64011e-17 -0.0 0.0 0.0 -0.0 0.0 0.0 -1.0947e-15 -3.10601e-18 9.93923e-17 -2.15017e-14 -1.30452e-16 9.93923e-16 -4.03284e-13 1.17879e-13 -1.27222e-14 -4.63506e-12 -1.391e-13 3.49861e-14 -1.09324e-11 -4.8137e-14 4.13472e-14 -1.88925e-11 -8.26944e-14 7.15625e-14 -1.09288e-11 -4.85035e-14 3.18055e-14 7.73091 5.47488 0.417314 -1.09332e-11 -4.82053e-14 4.77083e-14 2.90554 0.965183 0.102902 -1.09246e-11 -4.81059e-14 4.13472e-14 10.2786 0.731801 0.0259123 -1.09427e-11 -4.45278e-14 5.40694e-14 2.22167 -0.733487 -0.20892 -1.1914e-15 -3.49426e-18 -9.93923e-17 -2.54202e-14 1.73937e-16 -9.93923e-16 -4.0721e-13 -1.25433e-13 3.49861e-14 -4.63613e-12 9.80008e-14 -1.59028e-14 -1.0936e-11 -6.48101e-14 4.45278e-14 -1.88806e-11 -1.145e-13 8.5875e-14 -1.09395e-11 -6.67917e-14 5.40694e-14 -7.73091 5.47488 -0.417314 -1.09341e-11 -6.54995e-14 4.45278e-14 -2.90554 0.965183 -0.102902 -1.09375e-11 -6.53008e-14 4.6118e-14 -10.2786 0.731801 -0.0259123 -1.09282e-11 -5.96354e-14 4.45278e-14 -2.22167 -0.733487 0.20892 -2.03217e-16 0.0 -3.88251e-19 0.354957 -2.94056 -0.0354308 -0.00588113 -0.224754 -0.0517726 -0.43981 3.16568 0.113079 2.03217e-16 0.0 3.88251e-19 -0.527745 -3.42453 0.0465074 0.00449873 0.651857 0.0390513 0.443064 2.77306 -0.105712
26.6062 80.5978 202.987 175.14 1.9445 -139.916 -1.12474 -11.1979 -2.31343 0.262135 -1.91469 0.447067 -0.739498 0.304705 -1.47588 -0.46503 7.77434 -0.354447 -0.0 0.0 0.0 -0.0 0.0 0.0 3.08966e-14 4.59426e-14 -2.36678e-14 20.9272 9.86921 -6.05648 -4.85771 -2.35103 7.42473 0.0120349 2.43414 0.340982 -4.77585e-10 3.82838e-10 -3.97046e-10 -8.28716e-10 6.62308e-10 -6.82405e-10 -4.77579e-10 3.82835e-10 -3.97053e-10 7.73091 5.47488 0.417314 -4.77586e-10 3.82835e-10 -3.97038e-10 2.90554 0.965183 0.102902 -4.77578e-10 3.82835e-10 -3.97043e-10 10.2786 0.731801 0.0259123 -4.77594e-10 3.82839e-10 -3.97031e-10 2.22167 -0.733487 -0.20892 3.07862e-14 4.59405e-14 -2.3853e-14 -22.3458 10.989 3.00301 6.39775 -3.52949 -9.22427 -0.00361585 1.33625 -0.187614 -2.12247e-10 -5.75274e-10 -2.87183e-10 -3.67222e-10 -9.94572e-10 -4.96166e-10 -2.12254e-10 -5.75278e-10 -2.87174e-10 -7.73091 5.47488 -0.417314 -2.12247e-10 -5.75278e-10 -2.87182e-10 -2.90554 0.965183 -0.102902 -2.12251e-10 -5.75278e-10 -2.87182e-10 -10.2786 0.731801 -0.0259123 -2.12241e-10 -5.75272e-10 -2.87185e-10 -2.22167 -0.733487 0.20892 -2.03217e-16 0.0 -3.88251e-19 -0.918688 -24.1681 -1.60989 0.0121567 20.2906 0.224362 -0.711032 3.90753 -2.51821 2.03217e-16 0.0 3.88251e-19 -2.84641 -21.2761 -4.24908 -0.00360163 11.7819 -0.0931319 0.663349 -1.07975 2.52762
26.5499 80.6086 202.436 175.24 2.1031 -139.79 -3.26561 -22.9666 -5.07403 0.602334 -3.93448 0.92664 -1.50496 0.62577 -3.03701 -0.850061 15.9841 -0.755061 -0.0 0.0 0.0 -0.0 0.0 0.0 6.47761e-14 9.52181e-14 -4.83047e-14 45.4335 19.9421 -13.0617 -9.33651 -4.70493 15.3138 -0.00686892 5.01154 0.704126 -9.94216e-10 8.01455e-10 -8.14704e-10 -1.72513e-09 1.38646e-09 -1.39998e-09 -9.94208e-10 8.0145e-10 -8.14708e-10 7.73091 5.47488 0.417314 -9.94217e-10 8.0145e-10 -8.14696e-10 2.90554 0.965183 0.102902 -9.9421e-10 8.01449e-10 -8.14698e-10 10.2786 0.731801 0.0259123 -9.94224e-10 8.01453e-10 -8.14687e-10 2.22167 -0.733487 -0.20892 6.46494e-14 9.5214e-14 -4.84755e-14 -47.3267 22.4924 6.59465 11.9347 -6.95001 -19.0775 0.0021094 2.75795 -0.387574 -4.2168e-10 -1.18708e-09 -5.9936e-10 -7.29648e-10 -2.05242e-09 -1.0356e-09 -4.21691e-10 -1.18708e-09 -5.9935e-10 -7.73091 5.47488 -0.417314 -4.21681e-10 -1.18708e-09 -5.99356e-10 -2.90554 0.965183 -0.102902 -4.21686e-10 -1.18708e-09 -5.99359e-10 -10.2786 0.731801 -0.0259123 -4.21676e-10 -1.18708e-09 -5.99364e-10 -2.22167 -0.733487 0.20892 -2.03217e-16 0.0 -3.88251e-19 -4.08129 -46.5108 -4.36174 -0.24972 42.0264 0.656667 -0.923718 4.7244 -5.32405 2.03217e-16 0.0 3.88251e-19 -9.00774 -39.7863 -10.703 0.0492706 23.5456 -0.247106 1.27742 -5.10964 5.32525
26.5041 80.624 201.858 175.331 2.2557 -139.743 -6.3026 -33.3476 -8.15053 0.939459 -5.73424 1.35802 -2.17145 0.911689 -4.42815 -1.08472 23.3193 -1.1473 -0.0 0.0 0.0 -0.0 0.0 0.0 9.48792e-14 1.37834e-13 -7.12022e-14 69.6273 28.1963 -20.4098 -12.7863 -6.58035 22.4109 -0.0514122 7.30138 1.03038 -1.41089e-09 1.14861e-09 -1.19122e-09 -2.44836e-09 1.98709e-09 -2.04736e-09 -1.41088e-09 1.1486e-09 -1.19122e-09 7.73091 5.47488 0.417314 -1.41089e-09 1.1486e-09 -1.19121e-09 2.90554 0.965183 0.102902 -1.41088e-09 1.1486e-09 -1.19121e-09 10.2786 0.731801 0.0259123 -1.4109e-09 1.1486e-09 -1.1912e-09 2.22167 -0.733487 -0.20892 9.47413e-14 1.37828e-13 -7.13602e-14 -71.0225 32.5698 10.5113 15.8926 -9.49238 -28.0369 0.0154601 4.00858 -0.56407 -6.1487e-10 -1.72569e-09 -8.61639e-10 -1.0639e-09 -2.98349e-09 -1.48867e-09 -6.14883e-10 -1.7257e-09 -8.6163e-10 -7.73091 5.47488 -0.417314 -6.14873e-10 -1.7257e-09 -8.61634e-10 -2.90554 0.965183 -0.102902 -6.14878e-10 -1.7257e-09 -8.61639e-10 -10.2786 0.731801 -0.0259123 -6.14867e-10 -1.7257e-09 -8.61645e-10 -2.22167 -0.733487 0.20892 -2.03217e-16 0.0 -3.88251e-19 -11.4236 -66.2717 -10.8281 -1.06195 61.3133 1.53104 -1.04925 5.35285 -7.79709 2.03217e-16 0.0 3.88251e-19 -20.6455 -55.2581 -21.3418 0.159794 34.0412 -0.424322 2.17205 -8.70675 7.88412
26.4806 80.7132 201.164 175.249 2.2042 -139.99 -9.21873 -40.4858 -10.8818 1.2047 -6.98527 1.66314 -2.62361 1.11205 -5.39382 -1.17415 28.4716 -1.43775 -0.0 0.0 0.0 -0.0 0.0 0.0 1.15541e-13 1.63801e-13 -8.97513e-14 87.9621 33.2415 -26.4467 -14.907 -7.71012 27.3977 -0.097551 8.87328 1.25723 -1.57767e-09 1.31711e-09 -1.46488e-09 -2.73862e-09 2.27892e-09 -2.51924e-09 -1.57766e-09 1.3171e-09 -1.46488e-09 7.73091 5.47488 0.417314 -1.57767e-09 1.3171e-09 -1.46487e-09 2.90554 0.965183 0.102902 -1.57766e-09 1.3171e-09 -1.46487e-09 10.2786 0.731801 0.0259123 -1.57767e-09 1.3171e-09 -1.46486e-09 2.22167 -0.733487 -0.20892 1.15404e-13 1.63795e-13 -8.99004e-14 -88.4821 39.4696 13.8123 18.1761 -10.8772 -34.4163 0.0287181 4.8317 -0.680682 -7.67452e-10 -2.08134e-09 -9.99174e-10 -1.32774e-09 -3.59759e-09 -1.72584e-09 -7.67467e-10 -2.08134e-09 -9.99165e-10 -7.73091 5.47488 -0.417314 -7.67455e-10 -2.08135e-09 -9.99168e-10 -2.90554 0.965183 -0.102902 -7.6746e-10 -2.08135e-09 -9.99174e-10 -10.2786 0.731801 -0.0259123 -7.6745e-10 -2.08134e-09 -9.99181e-10 -2.22167 -0.733487 0.20892 -2.03217e-16 0.0 -3.88251e-19 -31.006 -79.4506 -29.5448 -2.91428 74.4797 3.38859 -1.1222 5.54552 -9.42287 2.03217e-16 0.0 3.88251e-19 -36.2393 -64.4564 -35.5869 0.287414 41.3671 -0.600891 3.02735 -11.2992 9.7517
26.4522 80.7385 200.572 175.292 2.31 -139.981 -10.4604 -43.292 -12.0826 1.33911 -7.46735 1.78795 -2.79233 1.19389 -5.7651 -1.17673 30.5775 -1.52305 -0.0 0.0 0.0 -0.0 0.0 0.0 1.23527e-13 1.68919e-13 -1.02789e-13 95.4395 34.8615 -29.0936 -15.6765 -8.1036 29.355 -0.117763 9.43814 1.33949 -1.31148e-09 1.20106e-09 -1.62374e-09 -2.27919e-09 2.07912e-09 -2.79675e-09 -1.31147e-09 1.20106e-09 -1.62374e-09 7.73091 5.47488 0.417314 -1.31148e-09 1.20106e-09 -1.62373e-09 2.90554 0.965183 0.102902 -1.31148e-09 1.20106e-09 -1.62373e-09 10.2786 0.731801 0.0259123 -1.31149e-09 1.20106e-09 -1.62373e-09 2.22167 -0.733487 -0.20892 1.23409e-13 1.68915e-13 -1.02937e-13 -95.3397 42.269 14.9775 19.0073 -11.3497 -37.0211 0.0335569 5.06135 -0.71332 -8.95032e-10 -2.1981e-09 -9.4094e-10 -1.54794e-09 -3.79721e-09 -1.62388e-09 -8.95046e-10 -2.19811e-09 -9.4093e-10 -7.73091 5.47488 -0.417314 -8.95035e-10 -2.19811e-09 -9.40933e-10 -2.90554 0.965183 -0.102902 -8.9504e-10 -2.19811e-09 -9.40939e-10 -10.2786 0.731801 -0.0259123 -8.95031e-10 -2.19811e-09 -9.40944e-10 -2.22167 -0.733487 0.20892 -2.03217e-16 0.0 -3.88251e-19 -60.3505 -83.7255 -58.5166 -4.6893 79.1555 5.17354 -1.18496 5.14155 -9.83233 2.03217e-16 0.0 3.88251e-19 -44.784 -67.2581 -43.3997 0.354396 44.2699 -0.719521 3.48807 -12.5556 10.5624
26.4324 80.7633 199.99 175.346 2.4297 -139.946 -10.028 -43.0744 -11.8083 1.37334 -7.40054 1.78274 -2.76191 1.19154 -5.71163 -1.14836 30.5078 -1.44184 -0.0 0.0 0.0 -0.0 0.0 0.0 1.22431e-13 1.59028e-13 -1.11863e-13 94.4957 34.3802 -28.8893 -15.5898 -8.05896 29.1314 -0.113162 9.28401 1.31712 -7.40004e-10 8.83412e-10 -1.69921e-09 -1.29111e-09 1.53097e-09 -2.93299e-09 -7.39987e-10 8.83406e-10 -1.69922e-09 7.73091 5.47488 0.417314 -7.39997e-10 8.83404e-10 -1.69921e-09 2.90554 0.965183 0.102902 -7.39997e-10 8.83406e-10 -1.69921e-09 10.2786 0.731801 0.0259123 -7.40008e-10 8.83408e-10 -1.6992e-09 2.22167 -0.733487 -0.20892 1.22346e-13 1.59027e-13 -1.12015e-13 -94.0759 42.2406 14.1831 18.9856 -11.3756 -36.8966 0.030823 4.86687 -0.685755 -1.00324e-09 -2.14342e-09 -7.43876e-10 -1.73436e-09 -3.69937e-09 -1.28142e-09 -1.00325e-09 -2.14342e-09 -7.43864e-10 -7.73091 5.47488 -0.417314 -1.00324e-09 -2.14342e-09 -7.43869e-10 -2.90554 0.965183 -0.102902 -1.00324e-09 -2.14342e-09 -7.43873e-10 -10.2786 0.731801 -0.0259123 -1.00324e-09 -2.14342e-09 -7.43877e-10 -2.22167 -0.733487 0.20892 -2.03217e-16 0.0 -3.88251e-19 -58.9687 -84.0102 -57.2127 -4.03874 77.7868 4.55466 -1.23584 4.31289 -9.37607 2.03217e-16 0.0 3.88251e-19 -42.6935 -66.7871 -41.2605 0.345197 44.0129 -0.770819 3.57907 -12.8766 10.5931
